<svg width="64" height="64" viewBox="0 0 64 64" fill="none" xmlns="http://www.w3.org/2000/svg">
  <rect x="9" y="9" width="46" height="46" rx="14" fill="#0F172A"/>
  <path d="M32 18V12M32 52V46M18 32H12M52 32H46M21.5 21.5L17.2 17.2M46.8 46.8L42.5 42.5M42.5 21.5L46.8 17.2M17.2 46.8L21.5 42.5" stroke="url(#paint0_linear)" stroke-width="3" stroke-linecap="round"/>
  <path d="M23 35C23 28.4 26.8 24 32 24C37.2 24 41 28.4 41 35V40H36V35C36 31.6 34.5 29 32 29C29.5 29 28 31.6 28 35V40H23V35Z" fill="url(#paint1_linear)"/>
  <path d="M27 35H37" stroke="#0F172A" stroke-width="3" stroke-linecap="round"/>
  <defs>
    <linearGradient id="paint0_linear" x1="12" y1="12" x2="52" y2="52" gradientUnits="userSpaceOnUse">
      <stop stop-color="#2DD4BF"/>
      <stop offset="1" stop-color="#38BDF8"/>
    </linearGradient>
    <linearGradient id="paint1_linear" x1="23" y1="24" x2="41" y2="40" gradientUnits="userSpaceOnUse">
      <stop stop-color="#2DD4BF"/>
      <stop offset="1" stop-color="#38BDF8"/>
    </linearGradient>
  </defs>
</svg>
